<svg width="42" height="42" viewBox="0 0 42 42" fill="none" xmlns="http://www.w3.org/2000/svg">
<rect x="42" y="42" width="42" height="42" rx="21" transform="rotate(180 42 42)" fill="#F1FAF3"/>
<path fill-rule="evenodd" clip-rule="evenodd" d="M30.5816 19.9898C30.0237 19.432 29.1192 19.432 28.5613 19.9898L22.4286 26.1225V12.4286C22.4286 11.6396 21.789 11 21 11C20.211 11 19.5714 11.6396 19.5714 12.4286V26.1225L13.4387 19.9898C12.8808 19.432 11.9763 19.432 11.4184 19.9898C10.8605 20.5477 10.8605 21.4523 11.4184 22.0102L19.9898 30.5816C20.5477 31.1395 21.4523 31.1395 22.0102 30.5816L30.5816 22.0102C31.1395 21.4523 31.1395 20.5477 30.5816 19.9898Z" fill="#0B5147"/>
</svg>
