<svg width="24" height="24" viewBox="0 0 24 24" fill="none" xmlns="http://www.w3.org/2000/svg">
<path fill-rule="evenodd" clip-rule="evenodd" d="M18 3H12C10.3431 3 9 4.34315 9 6V12C9 13.6569 10.3431 15 12 15H18C19.6569 15 21 13.6569 21 12V6C21 4.34315 19.6569 3 18 3ZM12 1C9.23858 1 7 3.23858 7 6V12C7 14.7614 9.23858 17 12 17H18C20.7614 17 23 14.7614 23 12V6C23 3.23858 20.7614 1 18 1H12Z" fill="#0B5147" fill-opacity="0.8"/>
<path d="M5 9C3.89543 9 3 9.89543 3 11V18C3 19.6569 4.34315 21 6 21H13C14.1046 21 15 20.1046 15 19H17C17 21.2091 15.2091 23 13 23H6C3.23858 23 1 20.7614 1 18V11C1 8.79086 2.79086 7 5 7V9Z" fill="#0B5147" fill-opacity="0.8"/>
</svg>
