<svg width="32" height="32" viewBox="0 0 32 32" fill="none" xmlns="http://www.w3.org/2000/svg">
<path fill-rule="evenodd" clip-rule="evenodd" d="M1.33333 7.99992C1.33333 4.31802 4.3181 1.33325 7.99999 1.33325H10.6667C11.403 1.33325 12 1.93021 12 2.66659C12 3.40296 11.403 3.99992 10.6667 3.99992H7.99999C5.79086 3.99992 3.99999 5.79078 3.99999 7.99992V9.99992C3.99999 10.7363 3.40304 11.3333 2.66666 11.3333C1.93028 11.3333 1.33333 10.7363 1.33333 9.99992V7.99992Z" fill="white"/>
<path fill-rule="evenodd" clip-rule="evenodd" d="M30.6667 24.0001C30.6667 27.682 27.6819 30.6667 24 30.6667L21.3333 30.6667C20.5969 30.6667 20 30.0698 20 29.3334C20 28.597 20.5969 28.0001 21.3333 28.0001L24 28.0001C26.2091 28.0001 28 26.2092 28 24.0001L28 22.0001C28 21.2637 28.5969 20.6667 29.3333 20.6667C30.0697 20.6667 30.6667 21.2637 30.6667 22.0001L30.6667 24.0001Z" fill="white"/>
<path fill-rule="evenodd" clip-rule="evenodd" d="M24 1.33325C27.6819 1.33325 30.6667 4.31802 30.6667 7.99992L30.6667 10.6666C30.6667 11.403 30.0697 11.9999 29.3333 11.9999C28.5969 11.9999 28 11.403 28 10.6666L28 7.99992C28 5.79078 26.2091 3.99992 24 3.99992L22 3.99992C21.2636 3.99992 20.6667 3.40296 20.6667 2.66658C20.6667 1.93021 21.2636 1.33325 22 1.33325L24 1.33325Z" fill="white"/>
<path fill-rule="evenodd" clip-rule="evenodd" d="M7.99999 30.6667C4.3181 30.6667 1.33333 27.682 1.33333 24.0001L1.33333 21.3334C1.33333 20.597 1.93028 20.0001 2.66666 20.0001C3.40304 20.0001 4 20.597 4 21.3334L4 24.0001C4 26.2092 5.79086 28.0001 7.99999 28.0001L9.99999 28.0001C10.7364 28.0001 11.3333 28.597 11.3333 29.3334C11.3333 30.0698 10.7364 30.6667 9.99999 30.6667L7.99999 30.6667Z" fill="white"/>
<path fill-rule="evenodd" clip-rule="evenodd" d="M9.72385 17.7238C10.2446 17.2031 11.0888 17.2031 11.6095 17.7238C11.6038 17.7181 11.6049 17.7188 11.6147 17.7252C11.6453 17.7452 11.7598 17.82 12.0128 17.9254C12.3104 18.0494 12.7021 18.1761 13.1567 18.2897C14.0715 18.5184 15.1284 18.6666 16 18.6666C16.8716 18.6666 17.9285 18.5184 18.8433 18.2897C19.2979 18.1761 19.6896 18.0494 19.9872 17.9254C20.2402 17.82 20.3547 17.7452 20.3853 17.7252C20.3951 17.7188 20.3962 17.7181 20.3905 17.7238C20.9112 17.2031 21.7554 17.2031 22.2761 17.7238C22.7968 18.2445 22.7968 19.0887 22.2761 19.6094C21.9194 19.9662 21.4286 20.2137 21.0128 20.3869C20.5604 20.5754 20.0354 20.7404 19.49 20.8768C18.4049 21.1481 17.1284 21.3333 16 21.3333C14.8716 21.3333 13.5951 21.1481 12.5099 20.8768C11.9645 20.7404 11.4396 20.5754 10.9872 20.3869C10.5714 20.2137 10.0806 19.9662 9.72385 19.6094C9.20315 19.0887 9.20315 18.2445 9.72385 17.7238Z" fill="white"/>
</svg>
