<svg width="49" height="56" viewBox="0 0 49 56" fill="none" xmlns="http://www.w3.org/2000/svg">
<g clip-path="url(#clip0_6695_2011)">
<g clip-path="url(#clip1_6695_2011)">
<path d="M18.6035 6.71875L22.002 12.5H21.875H14.8438C12.6855 12.5 10.9375 10.752 10.9375 8.59375C10.9375 6.43555 12.6855 4.6875 14.8438 4.6875H15.0586C16.5137 4.6875 17.8711 5.45898 18.6035 6.71875ZM6.25 8.59375C6.25 10 6.5918 11.3281 7.1875 12.5H3.125C1.39648 12.5 0 13.8965 0 15.625V21.875C0 23.6035 1.39648 25 3.125 25H46.875C48.6035 25 50 23.6035 50 21.875V15.625C50 13.8965 48.6035 12.5 46.875 12.5H42.8125C43.4082 11.3281 43.75 10 43.75 8.59375C43.75 3.84766 39.9023 0 35.1562 0H34.9414C31.8262 0 28.9355 1.65039 27.3535 4.33594L25 8.34961L22.6465 4.3457C21.0645 1.65039 18.1738 0 15.0586 0H14.8438C10.0977 0 6.25 3.84766 6.25 8.59375ZM39.0625 8.59375C39.0625 10.752 37.3145 12.5 35.1562 12.5H28.125H27.998L31.3965 6.71875C32.1387 5.45898 33.4863 4.6875 34.9414 4.6875H35.1562C37.3145 4.6875 39.0625 6.43555 39.0625 8.59375ZM3.125 28.125V45.3125C3.125 47.9004 5.22461 50 7.8125 50H21.875V28.125H3.125ZM28.125 50H42.1875C44.7754 50 46.875 47.9004 46.875 45.3125V28.125H28.125V50Z" fill="#0B5147"/>
</g>
</g>
<defs>
<clipPath id="clip0_6695_2011">
<rect width="49" height="56" fill="white"/>
</clipPath>
<clipPath id="clip1_6695_2011">
<rect width="50" height="50" fill="white"/>
</clipPath>
</defs>
</svg>
