<svg width="24" height="24" viewBox="0 0 24 24" fill="none" xmlns="http://www.w3.org/2000/svg">
<path fill-rule="evenodd" clip-rule="evenodd" d="M19.814 10.5455H12.186V13.6364H16.5767C16.1674 15.6 14.4558 16.7273 12.186 16.7273C9.50698 16.7273 7.34884 14.6182 7.34884 12C7.34884 9.38182 9.50698 7.27273 12.186 7.27273C13.3395 7.27273 14.3814 7.67273 15.2 8.32727L17.5814 6C16.1302 4.76364 14.2698 4 12.186 4C7.64651 4 4 7.56364 4 12C4 16.4364 7.64651 20 12.186 20C16.2791 20 20 17.0909 20 12C20 11.5273 19.9256 11.0182 19.814 10.5455Z" fill="#0B5147"/>
</svg>
