<svg width="25" height="24" viewBox="0 0 25 24" fill="none" xmlns="http://www.w3.org/2000/svg">
<mask id="path-1-inside-1_4685_10637" fill="white">
<path fill-rule="evenodd" clip-rule="evenodd" d="M16.84 2H8.17C4.78 2 2.5 4.38 2.5 7.92V16.09C2.5 19.62 4.78 22 8.17 22H16.84C20.23 22 22.5 19.62 22.5 16.09V7.92C22.5 4.38 20.23 2 16.84 2Z"/>
</mask>
<path d="M16.84 2V1H8.17V2V3H16.84V2ZM8.17 2V1C6.23222 1 4.54369 1.68576 3.34158 2.94078C2.14306 4.19207 1.5 5.93323 1.5 7.92H2.5H3.5C3.5 6.36677 3.99694 5.14793 4.78592 4.32422C5.57131 3.50424 6.71778 3 8.17 3V2ZM2.5 7.92H1.5V16.09H2.5H3.5V7.92H2.5ZM2.5 16.09H1.5C1.5 18.0725 2.14351 19.8112 3.342 21.0609C4.54398 22.3143 6.23226 23 8.17 23V22V21C6.71774 21 5.57102 20.4957 4.7855 19.6766C3.99649 18.8538 3.5 17.6375 3.5 16.09H2.5ZM8.17 22V23H16.84V22V21H8.17V22ZM16.84 22V23C18.7779 23 20.4642 22.3141 21.6639 21.06C22.8598 19.8098 23.5 18.0713 23.5 16.09H22.5H21.5C21.5 17.6387 21.0052 18.8552 20.2186 19.6775C19.4358 20.4959 18.2921 21 16.84 21V22ZM22.5 16.09H23.5V7.92H22.5H21.5V16.09H22.5ZM22.5 7.92H23.5C23.5 5.93445 22.8602 4.19341 21.6643 2.94169C20.4645 1.68592 18.778 1 16.84 1V2V3C18.292 3 19.4355 3.50408 20.2182 4.32331C21.0048 5.14659 21.5 6.36555 21.5 7.92H22.5Z" fill="white" mask="url(#path-1-inside-1_4685_10637)"/>
<path d="M12.4951 10.4873C12.9771 10.4873 13.3701 10.8803 13.3701 11.3623V15.7822C13.3701 16.2642 12.9771 16.6572 12.4951 16.6572C12.0131 16.6572 11.6201 16.2642 11.6201 15.7822V11.3623C11.6201 10.8803 12.0131 10.4873 12.4951 10.4873ZM12.5049 7.31445C12.9879 7.31445 13.3799 7.70745 13.3799 8.18945C13.3799 8.67145 12.9881 9.06445 12.4951 9.06445C12.0161 9.06445 11.625 8.67145 11.625 8.18945C11.625 7.70753 12.02 7.31458 12.5049 7.31445Z" fill="white"/>
</svg>
