<svg width="86" height="20" viewBox="0 0 86 20" fill="none" xmlns="http://www.w3.org/2000/svg">
<path d="M28.6135 7.34038L35.608 0.772327C35.7367 0.643541 35.8806 0.551551 36.0395 0.494685C36.1984 0.439491 36.3606 0.412732 36.5228 0.41775C36.6867 0.422767 36.8456 0.461236 36.9995 0.533155C37.155 0.606747 37.2955 0.707099 37.426 0.835884C37.5464 0.956307 37.6367 1.0968 37.6969 1.25569C37.7571 1.41458 37.7873 1.57682 37.7873 1.73905C37.7873 1.90129 37.7521 2.06185 37.6836 2.21573C37.615 2.37127 37.5163 2.51176 37.3875 2.64222L32.5355 7.18483L37.6836 14.927C37.7873 15.0826 37.8558 15.2431 37.8893 15.4104C37.9227 15.5776 37.9227 15.7415 37.8893 15.9004C37.8542 16.0593 37.7906 16.2098 37.6953 16.352C37.5999 16.4942 37.4795 16.6129 37.334 16.7066C37.1868 16.8103 37.033 16.8772 36.869 16.9073C36.7051 16.9374 36.5412 16.9374 36.379 16.9073C36.2151 16.8772 36.0629 16.8153 35.9207 16.72C35.7786 16.6246 35.6598 16.5042 35.5661 16.3587L30.6105 8.96442L28.6101 10.8477V15.6613C28.6101 16.0225 28.4847 16.3236 28.2355 16.5644C27.9863 16.8053 27.6802 16.9257 27.3189 16.9257C26.9577 16.9257 26.655 16.8053 26.4091 16.5644C26.1632 16.3236 26.0411 16.0225 26.0411 15.6613V1.67215C26.0411 1.31088 26.1632 1.00983 26.4091 0.768983C26.655 0.528138 26.9577 0.407715 27.3189 0.407715C27.6802 0.407715 27.9863 0.528138 28.2355 0.768983C28.4847 1.00983 28.6101 1.31088 28.6101 1.67215V7.33704L28.6135 7.34038Z" fill="#0FD790"/>
<path d="M38.003 10.9279C38.003 10.0766 38.1636 9.27876 38.4864 8.53448C38.8092 7.79021 39.2491 7.13792 39.8094 6.57929C40.368 6.02066 41.0219 5.57911 41.7712 5.25631C42.5188 4.93351 43.315 4.77295 44.1579 4.77295C45.0009 4.77295 45.792 4.93184 46.5329 5.24962C47.2721 5.5674 47.9194 6.00394 48.4747 6.55922C49.03 7.1145 49.4698 7.76177 49.7977 8.50103C50.1238 9.24029 50.2927 10.0331 50.3011 10.876V15.6127C50.3011 15.7933 50.266 15.9639 50.1974 16.1228C50.1288 16.2817 50.0368 16.4222 49.9197 16.5426C49.8043 16.663 49.6638 16.7584 49.4999 16.8269C49.336 16.8955 49.1638 16.9306 48.9831 16.9306C48.6386 16.9306 48.3526 16.8169 48.1251 16.5911C47.8977 16.3653 47.7655 16.0877 47.7321 15.7632C47.2236 16.1746 46.67 16.4974 46.0679 16.7333C45.4658 16.9691 44.8286 17.0862 44.1579 17.0862C43.315 17.0862 42.5188 16.9256 41.7712 16.6028C41.0219 16.28 40.3697 15.8401 39.8094 15.2798C39.2507 14.7212 38.8092 14.0689 38.4864 13.3246C38.1636 12.5804 38.003 11.7826 38.003 10.9312V10.9279ZM40.5704 10.9346C40.5704 11.4263 40.6657 11.8896 40.8547 12.3245C41.0437 12.7593 41.3013 13.139 41.624 13.4618C41.9468 13.7846 42.3265 14.0422 42.7614 14.2311C43.1962 14.4201 43.6595 14.5155 44.1512 14.5155C44.6429 14.5155 45.1179 14.4201 45.5545 14.2311C45.9893 14.0422 46.369 13.7846 46.6918 13.4618C47.0146 13.139 47.2688 12.7593 47.4545 12.3245C47.6401 11.8896 47.7321 11.4263 47.7321 10.9346C47.7321 10.4429 47.6401 9.96952 47.4545 9.53801C47.2688 9.10649 47.0146 8.73017 46.6918 8.40737C46.369 8.08457 45.9893 7.83035 45.5545 7.64469C45.1196 7.45904 44.6513 7.36705 44.1512 7.36705C43.6511 7.36705 43.1962 7.45904 42.7614 7.64469C42.3265 7.83035 41.9468 8.08457 41.624 8.40737C41.3013 8.73017 41.0437 9.10817 40.8547 9.53801C40.6657 9.96952 40.5704 10.4345 40.5704 10.9346Z" fill="#0FD790"/>
<path d="M54.4857 11.3459C53.999 11.1352 53.5658 10.8893 53.1828 10.61C52.7998 10.3307 52.4938 10.0012 52.2663 9.6232C52.0388 9.24521 51.9251 8.79697 51.9251 8.28182C51.9251 7.73992 52.0438 7.24987 52.2797 6.80999C52.5155 6.37179 52.8299 5.99881 53.2213 5.69441C53.6127 5.38834 54.0642 5.15251 54.576 4.98526C55.0878 4.818 55.6197 4.73438 56.1699 4.73438C56.5312 4.73438 56.9008 4.77117 57.2805 4.84476C57.6585 4.91835 58.0198 5.02707 58.3643 5.16924C58.7088 5.3114 59.0182 5.49204 59.2942 5.70779C59.5702 5.92355 59.7809 6.17945 59.9264 6.47381C60.0469 6.72469 60.0903 6.96052 60.0552 7.17962C60.0201 7.39873 59.9298 7.58605 59.7843 7.7416C59.6287 7.91387 59.4364 8.03262 59.2039 8.09617C58.9714 8.1614 58.744 8.14133 58.5198 8.03763C58.3392 7.90885 58.1669 7.78174 58.003 7.6563C57.8391 7.53253 57.6735 7.42214 57.5063 7.32681C57.339 7.23147 57.1618 7.15454 56.9778 7.09433C56.7921 7.03412 56.5847 7.00401 56.3523 7.00401C55.8271 7.00401 55.3889 7.10269 55.036 7.30005C54.6831 7.4974 54.5075 7.80348 54.5075 8.2166C54.5075 8.42232 54.5627 8.60295 54.6747 8.7585C54.7868 8.91404 54.939 9.05119 55.133 9.17161C55.327 9.29204 55.5561 9.40242 55.8237 9.5011C56.0897 9.59978 56.3824 9.69679 56.7018 9.79212C57.2186 9.95603 57.7087 10.1316 58.1736 10.3206C58.6386 10.5096 59.0484 10.7421 59.4063 11.0181C59.7625 11.2941 60.0469 11.6252 60.2576 12.0116C60.4683 12.3996 60.5737 12.8679 60.5737 13.4182C60.5737 13.935 60.4633 14.4133 60.2442 14.8566C60.0251 15.2998 59.7224 15.6845 59.3344 16.0123C58.9463 16.3401 58.4897 16.5977 57.9595 16.7867C57.4294 16.9757 56.8557 17.071 56.2369 17.071C55.8321 17.071 55.4123 17.0292 54.9791 16.9472C54.5443 16.8653 54.1278 16.7348 53.7281 16.5575C53.3283 16.3802 52.9621 16.1528 52.6309 15.8768C52.2997 15.5992 52.0305 15.2663 51.8247 14.8766C51.6876 14.6274 51.6207 14.3916 51.624 14.1725C51.6291 13.9534 51.6792 13.7611 51.7796 13.5988C51.8783 13.4349 52.0121 13.3045 52.1793 13.2058C52.3466 13.1071 52.5339 13.0502 52.7413 13.0385C52.947 13.0251 53.1577 13.0669 53.3735 13.1606C53.5893 13.2559 53.7866 13.4148 53.9672 13.6373C54.2432 14.042 54.5543 14.3364 54.9022 14.5221C55.2501 14.7077 55.6916 14.7997 56.2251 14.7997C56.4576 14.7997 56.6851 14.7696 56.9092 14.7094C57.1333 14.6492 57.3324 14.5655 57.5096 14.4585C57.6853 14.3515 57.8257 14.2177 57.9294 14.0588C58.0331 13.8999 58.085 13.7176 58.085 13.5102C58.085 13.261 58.0164 13.0502 57.8793 12.878C57.7421 12.7057 57.5698 12.5618 57.3625 12.4464C57.1567 12.331 56.9309 12.234 56.6851 12.1554C56.4392 12.0785 56.2101 12.0049 55.9943 11.9363C55.4775 11.7557 54.9774 11.56 54.4907 11.3493L54.4857 11.3459Z" fill="#0FD790"/>
<path d="M64.7349 6.2248C65.1999 5.77489 65.7133 5.41864 66.272 5.15438C66.8323 4.89012 67.4176 4.75799 68.0298 4.75799C68.7791 4.75799 69.4648 4.90851 70.0853 5.20957C70.7058 5.51062 71.236 5.92709 71.6742 6.45561C72.1141 6.9858 72.4553 7.61468 72.7011 8.34223C72.947 9.06979 73.0691 9.86424 73.0691 10.7256V15.6863C73.0691 16.0476 72.9453 16.3503 72.6995 16.5912C72.4536 16.832 72.1475 16.9525 71.7846 16.9525C71.4216 16.9525 71.1172 16.832 70.8697 16.5912C70.6239 16.3503 70.5001 16.0493 70.5001 15.688V10.7841C70.5001 10.2673 70.4382 9.79734 70.3128 9.37084C70.1873 8.94434 70.0067 8.57973 69.7709 8.27366C69.5334 7.96758 69.244 7.73343 68.8995 7.57119C68.5549 7.40728 68.1686 7.32533 67.7387 7.32533C67.3089 7.32533 66.9259 7.40728 66.5646 7.57119C66.2034 7.7351 65.8889 7.95922 65.623 8.24188C65.3571 8.52621 65.1463 8.86406 64.9908 9.25544C64.8353 9.64681 64.75 10.07 64.7332 10.5266V15.6495C64.7332 16.0108 64.6111 16.3135 64.3653 16.5594C64.1194 16.8053 63.8167 16.9274 63.4554 16.9274C63.2748 16.9274 63.1042 16.8956 62.9453 16.8304C62.7864 16.7651 62.6493 16.6748 62.5322 16.5594C62.4151 16.444 62.3265 16.3085 62.2612 16.153C62.196 15.9974 62.1642 15.8302 62.1642 15.6495V1.71229C62.1642 1.53166 62.1977 1.36106 62.2679 1.20217C62.3365 1.04328 62.4285 0.906131 62.5456 0.789053C62.661 0.673648 62.7998 0.579985 62.9587 0.511411C63.1176 0.442837 63.2832 0.407715 63.4554 0.407715C63.6361 0.407715 63.8033 0.442837 63.9589 0.511411C64.1144 0.579985 64.2499 0.671976 64.3653 0.789053C64.4807 0.904458 64.571 1.04328 64.6362 1.20217C64.7015 1.36106 64.7332 1.53166 64.7332 1.71229V6.2248H64.7349Z" fill="#0FD790"/>
<path d="M74.9456 6.0242C74.9456 5.66293 75.0711 5.36188 75.3203 5.12103C75.5695 4.88019 75.8756 4.75977 76.2368 4.75977C76.5981 4.75977 76.8908 4.88019 77.14 5.12103C77.3892 5.36188 77.5146 5.66294 77.5146 6.02253V10.9716C77.5146 11.4867 77.5799 11.9533 77.7087 12.3698C77.8374 12.7863 78.0197 13.1425 78.2572 13.4386C78.4931 13.7346 78.7824 13.9654 79.1219 14.1276C79.4614 14.2916 79.8461 14.3718 80.2776 14.3718C80.7092 14.3718 81.1055 14.2882 81.4718 14.121C81.8381 13.9537 82.1559 13.7195 82.4268 13.4185C82.6978 13.1174 82.9085 12.7662 83.059 12.3614C83.2096 11.9584 83.2848 11.5151 83.2848 11.0335V6.05933C83.2848 5.69806 83.4069 5.39533 83.6528 5.15114C83.8987 4.90695 84.2014 4.78318 84.5626 4.78318C84.7349 4.78318 84.9005 4.81496 85.0594 4.88019C85.2183 4.94542 85.3554 5.03573 85.4725 5.15114C85.5879 5.26654 85.6816 5.40202 85.7501 5.55757C85.8187 5.71311 85.8538 5.88036 85.8538 6.061V15.6614C85.8538 15.842 85.8187 16.0092 85.7501 16.1648C85.6816 16.3203 85.5862 16.4558 85.4658 16.5712C85.3454 16.6866 85.2049 16.7803 85.046 16.8489C84.8871 16.9174 84.7165 16.9526 84.5359 16.9526C84.1746 16.9526 83.8752 16.8271 83.6394 16.5762C83.4019 16.3254 83.2848 16.0193 83.2848 15.6547V15.4724C82.8115 15.9306 82.2947 16.2902 81.7361 16.5495C81.1775 16.8087 80.5921 16.9392 79.9816 16.9392C79.2323 16.9392 78.5499 16.7886 77.9294 16.4876C77.3106 16.1865 76.7787 15.7701 76.3355 15.2365C75.8923 14.703 75.5511 14.0708 75.3103 13.3399C75.0694 12.609 74.949 11.8129 74.949 10.9532V6.0242H74.9456Z" fill="#0FD790"/>
<path d="M20.0033 1.75951C20.0033 1.70431 20 1.64745 19.995 1.59225C19.9916 1.56549 19.9866 1.53874 19.9833 1.51197C19.9783 1.48187 19.9749 1.45176 19.9699 1.42166C19.9632 1.39155 19.9548 1.36312 19.9481 1.33301C19.9415 1.30625 19.9364 1.27949 19.9281 1.2544C19.9197 1.22597 19.908 1.19753 19.898 1.1691C19.8879 1.14234 19.8796 1.11725 19.8695 1.09049C19.8578 1.06373 19.8461 1.03865 19.8344 1.01356C19.8227 0.986796 19.8093 0.960036 19.796 0.934947C19.7826 0.909859 19.7675 0.886445 19.7541 0.86303C19.7391 0.837942 19.724 0.811182 19.7073 0.786094C19.6906 0.759334 19.6705 0.735916 19.6521 0.710828C19.6371 0.689085 19.622 0.669014 19.6053 0.647271C19.5702 0.603785 19.5317 0.561972 19.4916 0.521831C19.4916 0.521831 19.4899 0.52016 19.4882 0.518487C19.4882 0.518487 19.4865 0.516812 19.4849 0.515139C19.4447 0.474998 19.4029 0.436531 19.3594 0.401408C19.3394 0.384682 19.3159 0.369628 19.2942 0.352903C19.2691 0.334505 19.2457 0.316109 19.2189 0.297711C19.1938 0.280986 19.1671 0.265933 19.1403 0.250881C19.1169 0.2375 19.0952 0.222447 19.0701 0.209067C19.0433 0.194014 19.0149 0.182308 18.9881 0.168928C18.963 0.15722 18.9379 0.145509 18.9129 0.133801C18.8861 0.122093 18.8593 0.113732 18.8309 0.103696C18.8041 0.0936612 18.7774 0.0836289 18.749 0.0752662C18.7222 0.0669035 18.6938 0.0602126 18.6653 0.0535224C18.6369 0.0468323 18.6101 0.0384704 18.58 0.0334528C18.5482 0.0267626 18.5148 0.0234131 18.483 0.0183955C18.4579 0.0150504 18.4345 0.0100332 18.4094 0.00836064C18.3509 0.00334303 18.2924 0 18.2338 0H11.0386C10.0619 0 9.27078 0.791111 9.27078 1.76787C9.27078 2.74463 10.0619 3.53574 11.0386 3.53574H13.9672L7.04967 10.4534C6.14651 11.3565 5.10454 11.0237 4.80683 10.8999C4.50912 10.7762 3.53571 10.2744 3.53571 8.99825V1.76787C3.53571 0.791111 2.74461 0 1.76786 0C0.791103 0 0 0.791111 0 1.76787V8.99825C0 11.303 1.32296 13.2833 3.45208 14.1647C4.16624 14.4607 4.90216 14.6046 5.62803 14.6046C7.06807 14.6046 8.46295 14.0359 9.54674 12.9521L16.4643 6.03451V8.96312C16.4643 9.93989 17.2554 10.731 18.2321 10.731C19.2089 10.731 20 9.93989 20 8.96312V1.76787C20 1.76787 20 1.76285 20 1.76118L20.0033 1.75951Z" fill="#0FD790"/>
<path d="M18.2372 16.4639H1.77289C0.796139 16.4639 0.0050354 17.255 0.0050354 18.2317C0.0050354 19.2085 0.796139 19.9996 1.77289 19.9996H18.2372C19.2139 19.9996 20.005 19.2085 20.005 18.2317C20.005 17.255 19.2139 16.4639 18.2372 16.4639Z" fill="#0FD790"/>
</svg>
