<svg width="49" height="40" viewBox="0 0 49 40" fill="none" xmlns="http://www.w3.org/2000/svg">
<rect x="20.3433" y="12.1768" width="9.56138" height="15.6166" fill="#F15223"/>
<path d="M21.3281 19.9865C21.3257 16.9396 22.7244 14.0608 25.1212 12.1796C21.0494 8.97957 15.2022 9.44567 11.6888 13.2503C8.17536 17.0549 8.17536 22.9207 11.6888 26.7254C15.2022 30.53 21.0494 30.9961 25.1212 27.7961C22.7237 25.9143 21.3249 23.0343 21.3281 19.9865Z" fill="#EB001B"/>
<path fill-rule="evenodd" clip-rule="evenodd" d="M40.2416 25.8206V26.1406H40.1809V25.8206H40.0513V25.7544H40.3795V25.8206H40.2416ZM40.8789 25.7544V26.1406H40.8099V25.8482L40.7023 26.0992H40.6278L40.5202 25.8482V26.1406H40.4485V25.7544H40.5478L40.6637 26.0303L40.7795 25.7544H40.8789Z" fill="#FFAA1B"/>
<path d="M41.1905 19.9864C41.1905 23.7887 39.0194 27.2572 35.5993 28.9188C32.1793 30.5803 28.1107 30.1433 25.1216 27.7933C27.5173 25.9105 28.9161 23.0321 28.9161 19.985C28.9161 16.9379 27.5173 14.0595 25.1216 12.1767C28.1107 9.82668 32.1793 9.38965 35.5993 11.0512C39.0194 12.7128 41.1905 16.1813 41.1905 19.9836V19.9864Z" fill="#FFAA1B"/>
</svg>
