<svg width="22" height="22" viewBox="0 0 22 22" fill="none" xmlns="http://www.w3.org/2000/svg">
<path d="M2.75 6.1875C3.29701 6.1875 3.82161 5.9702 4.20841 5.58341C4.5952 5.19661 4.8125 4.67201 4.8125 4.125C4.8125 3.57799 4.5952 3.05339 4.20841 2.66659C3.82161 2.2798 3.29701 2.0625 2.75 2.0625C2.20299 2.0625 1.67839 2.2798 1.29159 2.66659C0.904798 3.05339 0.6875 3.57799 0.6875 4.125C0.6875 4.67201 0.904798 5.19661 1.29159 5.58341C1.67839 5.9702 2.20299 6.1875 2.75 6.1875ZM8.25 2.75C7.48945 2.75 6.875 3.36445 6.875 4.125C6.875 4.88555 7.48945 5.5 8.25 5.5H20.625C21.3855 5.5 22 4.88555 22 4.125C22 3.36445 21.3855 2.75 20.625 2.75H8.25ZM8.25 9.625C7.48945 9.625 6.875 10.2395 6.875 11C6.875 11.7605 7.48945 12.375 8.25 12.375H20.625C21.3855 12.375 22 11.7605 22 11C22 10.2395 21.3855 9.625 20.625 9.625H8.25ZM8.25 16.5C7.48945 16.5 6.875 17.1145 6.875 17.875C6.875 18.6355 7.48945 19.25 8.25 19.25H20.625C21.3855 19.25 22 18.6355 22 17.875C22 17.1145 21.3855 16.5 20.625 16.5H8.25ZM2.75 19.9375C3.29701 19.9375 3.82161 19.7202 4.20841 19.3334C4.5952 18.9466 4.8125 18.422 4.8125 17.875C4.8125 17.328 4.5952 16.8034 4.20841 16.4166C3.82161 16.0298 3.29701 15.8125 2.75 15.8125C2.20299 15.8125 1.67839 16.0298 1.29159 16.4166C0.904798 16.8034 0.6875 17.328 0.6875 17.875C0.6875 18.422 0.904798 18.9466 1.29159 19.3334C1.67839 19.7202 2.20299 19.9375 2.75 19.9375ZM4.8125 11C4.8125 10.7291 4.75915 10.4609 4.6555 10.2107C4.55185 9.96048 4.39993 9.73311 4.20841 9.54159C4.01689 9.35007 3.78952 9.19815 3.53928 9.0945C3.28905 8.99085 3.02085 8.9375 2.75 8.9375C2.47915 8.9375 2.21095 8.99085 1.96072 9.0945C1.71048 9.19815 1.48311 9.35007 1.29159 9.54159C1.10007 9.73311 0.948149 9.96048 0.844498 10.2107C0.740848 10.4609 0.6875 10.7291 0.6875 11C0.6875 11.2709 0.740848 11.5391 0.844498 11.7893C0.948149 12.0395 1.10007 12.2669 1.29159 12.4584C1.48311 12.6499 1.71048 12.8019 1.96072 12.9055C2.21095 13.0092 2.47915 13.0625 2.75 13.0625C3.02085 13.0625 3.28905 13.0092 3.53928 12.9055C3.78952 12.8019 4.01689 12.6499 4.20841 12.4584C4.39993 12.2669 4.55185 12.0395 4.6555 11.7893C4.75915 11.5391 4.8125 11.2709 4.8125 11Z" fill="#CFE8E1"/>
</svg>
