<svg width="42" height="42" viewBox="0 0 42 42" fill="none" xmlns="http://www.w3.org/2000/svg">
<rect x="42" width="42" height="42" rx="21" transform="rotate(90 42 0)" fill="#F1FAF3"/>
<path fill-rule="evenodd" clip-rule="evenodd" d="M19.9898 11.4184C19.432 11.9763 19.432 12.8808 19.9898 13.4387L26.1225 19.5714H12.4286C11.6396 19.5714 11 20.211 11 21C11 21.789 11.6396 22.4286 12.4286 22.4286H26.1225L19.9898 28.5613C19.432 29.1192 19.432 30.0237 19.9898 30.5816C20.5477 31.1395 21.4523 31.1395 22.0102 30.5816L30.5816 22.0102C31.1395 21.4523 31.1395 20.5477 30.5816 19.9898L22.0102 11.4184C21.4523 10.8605 20.5477 10.8605 19.9898 11.4184Z" fill="#0B5147"/>
</svg>
