<svg width="22" height="20" viewBox="0 0 22 20" fill="none" xmlns="http://www.w3.org/2000/svg">
<g clip-path="url(#clip0_6628_1362)">
<path d="M2.4444 1.25C1.09613 1.25 -4.57764e-05 2.37109 -4.57764e-05 3.75V5H22V3.75C22 2.37109 20.9038 1.25 19.5555 1.25H2.4444ZM22 8.75H-4.57764e-05V16.25C-4.57764e-05 17.6289 1.09613 18.75 2.4444 18.75H19.5555C20.9038 18.75 22 17.6289 22 16.25V8.75ZM4.27773 13.75H6.72218C7.05829 13.75 7.33329 14.0312 7.33329 14.375C7.33329 14.7188 7.05829 15 6.72218 15H4.27773C3.94162 15 3.66662 14.7188 3.66662 14.375C3.66662 14.0312 3.94162 13.75 4.27773 13.75ZM8.55551 14.375C8.55551 14.0312 8.83051 13.75 9.16662 13.75H14.0555C14.3916 13.75 14.6666 14.0312 14.6666 14.375C14.6666 14.7188 14.3916 15 14.0555 15H9.16662C8.83051 15 8.55551 14.7188 8.55551 14.375Z" fill="#CFE8E1"/>
</g>
<defs>
<clipPath id="clip0_6628_1362">
<rect width="22" height="20" fill="white"/>
</clipPath>
</defs>
</svg>
